<svg xmlns="http://www.w3.org/2000/svg" viewBox="0 0 48 48">
  <defs>
    <linearGradient id="g" x1="0%" y1="0%" x2="100%" y2="100%">
      <stop offset="0%" style="stop-color:#6366f1"/>
      <stop offset="100%" style="stop-color:#4f46e5"/>
    </linearGradient>
  </defs>
  <rect width="48" height="48" rx="10" fill="#0a0b10"/>
  <g transform="translate(8,2) scale(0.7)" fill="url(#g)" stroke="#a5b4fc" stroke-width="1.5" stroke-linejoin="round">
    <path d="M 22.5 16 L 22.5 8 M 19 11 L 26 11 M 22.5 13 L 22.5 30 M 17 21 L 28 21"/>
    <path d="M 11.5 37 L 33.5 37 L 33.5 40 L 11.5 40 L 11.5 37 z M 14.5 37 L 15.5 30 L 29.5 30 L 30.5 37 L 14.5 37 z M 17 30 C 17,26 19.5,22 22.5,16 C 25.5,22 28,26 28,30 L 17 30 z"/>
  </g>
</svg>
